<svg width="26" height="17" viewBox="0 0 26 17" fill="none" xmlns="http://www.w3.org/2000/svg">
<path d="M12.811 0C13.802 0 14.7524 0.427608 15.4532 1.18876C16.1539 1.9499 16.5476 2.98224 16.5476 4.05866C16.5476 5.13509 16.1539 6.16743 15.4532 6.92857C14.7524 7.68972 13.802 8.11733 12.811 8.11733C11.82 8.11733 10.8696 7.68972 10.1689 6.92857C9.46814 6.16743 9.07447 5.13509 9.07447 4.05866C9.07447 2.98224 9.46814 1.9499 10.1689 1.18876C10.8696 0.427608 11.82 0 12.811 0ZM5.33793 2.89905C5.93577 2.89905 6.49092 3.07299 6.97133 3.38609C6.81119 5.04434 7.25958 6.691 8.1777 7.97817C7.64391 9.09141 6.57632 9.85676 5.33793 9.85676C4.4885 9.85676 3.67387 9.49023 3.07324 8.83782C2.4726 8.18541 2.13517 7.30055 2.13517 6.3779C2.13517 5.45525 2.4726 4.57039 3.07324 3.91798C3.67387 3.26557 4.4885 2.89905 5.33793 2.89905ZM20.2841 2.89905C21.1335 2.89905 21.9482 3.26557 22.5488 3.91798C23.1494 4.57039 23.4869 5.45525 23.4869 6.3779C23.4869 7.30055 23.1494 8.18541 22.5488 8.83782C21.9482 9.49023 21.1335 9.85676 20.2841 9.85676C19.0457 9.85676 17.9781 9.09141 17.4443 7.97817C18.3625 6.691 18.8108 5.04434 18.6507 3.38609C19.1311 3.07299 19.6863 2.89905 20.2841 2.89905ZM5.87172 14.7851C5.87172 12.3847 8.97839 10.4366 12.811 10.4366C16.6437 10.4366 19.7503 12.3847 19.7503 14.7851V16.8145H5.87172V14.7851ZM0 16.8145V15.075C0 13.4632 2.01774 12.1064 4.75075 11.7121C4.12088 12.5007 3.73655 13.5907 3.73655 14.7851V16.8145H0ZM25.622 16.8145H21.8855V14.7851C21.8855 13.5907 21.5012 12.5007 20.8713 11.7121C23.6043 12.1064 25.622 13.4632 25.622 15.075V16.8145Z" fill="#004788"/>
</svg>
